<?xml version="1.0" encoding="UTF-8" standalone="no"?>
<svg
   viewBox="6.3 172.8 543.32889 176.02344"
   width="1195.7062"
   height="239.28186"
   version="1.1"
   id="svg58"
   sodipodi:docname="google-play-3.svg"
   inkscape:version="1.1 (c68e22c387, 2021-05-23)"
   xmlns:inkscape="http://www.inkscape.org/namespaces/inkscape"
   xmlns:sodipodi="http://sodipodi.sourceforge.net/DTD/sodipodi-0.dtd"
   xmlns="http://www.w3.org/2000/svg"
   xmlns:svg="http://www.w3.org/2000/svg">
  <defs
     id="defs62" />
  <sodipodi:namedview
     id="namedview60"
     pagecolor="#ffffff"
     bordercolor="#666666"
     borderopacity="1.0"
     inkscape:pageshadow="2"
     inkscape:pageopacity="0.0"
     inkscape:pagecheckerboard="0"
     showgrid="false"
     inkscape:zoom="0.4536"
     inkscape:cx="408.95062"
     inkscape:cy="120.14991"
     inkscape:window-width="1920"
     inkscape:window-height="1017"
     inkscape:window-x="1358"
     inkscape:window-y="-8"
     inkscape:window-maximized="1"
     inkscape:current-layer="svg58"
     fit-margin-top="0"
     fit-margin-left="0"
     fit-margin-right="0"
     fit-margin-bottom="0" />
  <linearGradient
     id="a"
     gradientUnits="userSpaceOnUse"
     x1="215.196"
     x2="100.359"
     y1="319.45401"
     y2="434.29099"
     gradientTransform="translate(-293.24996,-135.91422)">
    <stop
       offset="0"
       stop-color="#00a0ff"
       id="stop2" />
    <stop
       offset=".007"
       stop-color="#00a1ff"
       id="stop4" />
    <stop
       offset=".26"
       stop-color="#00beff"
       id="stop6" />
    <stop
       offset=".512"
       stop-color="#00d2ff"
       id="stop8" />
    <stop
       offset=".76"
       stop-color="#00dfff"
       id="stop10" />
    <stop
       offset="1"
       stop-color="#00e3ff"
       id="stop12" />
  </linearGradient>
  <linearGradient
     id="b"
     gradientUnits="userSpaceOnUse"
     x1="297.578"
     x2="132.007"
     y1="396.75"
     y2="396.75"
     gradientTransform="translate(-293.24996,-135.91422)">
    <stop
       offset="0"
       stop-color="#ffe000"
       id="stop15" />
    <stop
       offset=".409"
       stop-color="#ffbd00"
       id="stop17" />
    <stop
       offset=".775"
       stop-color="orange"
       id="stop19" />
    <stop
       offset="1"
       stop-color="#ff9c00"
       id="stop21" />
  </linearGradient>
  <linearGradient
     id="c"
     gradientUnits="userSpaceOnUse"
     x1="235.96899"
     x2="80.241997"
     y1="412.48099"
     y2="568.20801"
     gradientTransform="translate(-293.24996,-135.91422)">
    <stop
       offset="0"
       stop-color="#ff3a44"
       id="stop24" />
    <stop
       offset="1"
       stop-color="#c31162"
       id="stop26" />
  </linearGradient>
  <linearGradient
     id="d"
     gradientUnits="userSpaceOnUse"
     x1="116.02"
     x2="185.55901"
     y1="261.07001"
     y2="330.60901"
     gradientTransform="translate(-293.24996,-135.91422)">
    <stop
       offset="0"
       stop-color="#32a071"
       id="stop29" />
    <stop
       offset=".069"
       stop-color="#2da771"
       id="stop31" />
    <stop
       offset=".476"
       stop-color="#15cf74"
       id="stop33" />
    <stop
       offset=".801"
       stop-color="#06e775"
       id="stop35" />
    <stop
       offset="1"
       stop-color="#00f076"
       id="stop37" />
  </linearGradient>
  <path
     d="m -338.84641,36.885783 h 1136 V 484.88578 h -1136 z"
     fill="none"
     id="path40" />
  <path
     d="m 254.24122,236.79872 c -18.7,0 -33.9,14.2 -33.9,33.8 0,19.5 15.2,33.8 33.9,33.8 18.7,0 33.9,-14.3 33.9,-33.8 0,-19.5 -15.2,-33.8 -33.9,-33.8 z m 0,54.3 c -10.2,0 -19.1,-8.5 -19.1,-20.5 0,-12.2 8.8,-20.5 19.1,-20.5 10.3,0 19.1,8.3 19.1,20.5 -0.1,12 -8.9,20.5 -19.1,20.5 z m 90.8,-46.7 h -0.5 c -3.3,-4 -9.7,-7.6 -17.8,-7.6 -16.9,0 -32.4,14.9 -32.4,33.9 0,18.9 15.5,33.7 32.4,33.7 8.1,0 14.5,-3.6 17.8,-7.7 h 0.5 v 4.9 c 0,12.9 -6.9,19.8 -18,19.8 -9.1,0 -14.7,-6.5 -17,-12 l -12.9,5.4 c 3.7,9 13.6,20 30,20 17.4,0 32.1,-10.2 32.1,-35.2 v -60.7 h -14.1 z m -17,46.7 c -10.2,0 -18.8,-8.6 -18.8,-20.4 0,-11.9 8.6,-20.6 18.8,-20.6 10.1,0 18,8.7 18,20.6 0,11.9 -7.9,20.4 -18,20.4 z m -147.8,-54.3 c -18.7,0 -33.9,14.2 -33.9,33.8 0,19.5 15.2,33.8 33.9,33.8 18.7,0 33.9,-14.3 33.9,-33.8 0,-19.5 -15.2,-33.8 -33.9,-33.8 z m 0,54.3 c -10.2,0 -19.1,-8.5 -19.1,-20.5 0,-12.2 8.8,-20.5 19.1,-20.5 10.2,0 19.1,8.3 19.1,20.5 -0.1,12 -8.9,20.5 -19.1,20.5 z m -88.099998,-44 v 14.3 h 34.299998 c -1,8.1 -3.7,14 -7.8,18.1 -5,5 -12.8,10.5 -26.499998,10.5 -21.1,0 -37.6,-17 -37.6,-38.1 0,-21.1 16.5,-38.1 37.6,-38.1 11.399998,0 19.699998,4.5 25.899998,10.2 l 10.1,-10.1 c -8.6,-8.2 -20,-14.5 -35.999998,-14.5 -28.9,0 -53.3,23.6 -53.3,52.5 0,28.9 24.3,52.5 53.3,52.5 15.599998,0 27.399998,-5.1 36.599998,-14.7 9.5,-9.5 12.4,-22.8 12.4,-33.5 0,-3.3 -0.3,-6.4 -0.8,-9 z m 359.999998,11.3 c -2.8,-7.6 -11.4,-21.5 -28.9,-21.5 -17.4,0 -31.9,13.7 -31.9,33.8 0,18.9 14.3,33.8 33.5,33.8 15.5,0 24.5,-9.5 28.2,-15 l -11.5,-7.7 c -3.8,5.6 -9.1,9.3 -16.6,9.3 -7.5,0 -12.9,-3.5 -16.4,-10.2 l 45.2,-18.7 z m -46,11.2 c -0.4,-13.1 10.1,-19.7 17.7,-19.7 5.9,0 10.9,2.9 12.5,7.2 z m -36.8,32.8 h 14.8 v -99.3 h -14.8 z m 152.4,-99.3 h -35.5 v 99.3 h 14.8 v -37.6 h 20.7 c 16.4,0 32.6,-11.9 32.6,-30.9 0,-18.9 -16.2,-30.8 -32.6,-30.8 z m 0.4,47.7 h -21.1 v -34 h 21.1 c 11.1,0 17.4,9.2 17.4,17 0,7.8 -6.3,17 -17.4,17 z m 40.4,51.6 h 14.8 v -99.3 h -14.8 z m 51.2,-65.8 c -10.7,0 -21.9,4.7 -26.5,15.2 l 13.2,5.5 c 2.8,-5.5 8,-7.3 13.5,-7.3 7.7,0 15.5,4.6 15.6,12.8 v 1 c -2.7,-1.5 -8.4,-3.8 -15.5,-3.8 -14.2,0 -28.6,7.8 -28.6,22.4 0,13.3 11.6,21.8 24.7,21.8 10,0 15.5,-4.5 18.9,-9.7 h 0.5 v 7.7 h 14.3 v -38.1 c 0.1,-17.6 -13.1,-27.5 -30.1,-27.5 z m -1.8,54.5 c -4.9,0 -11.6,-2.4 -11.6,-8.4 0,-7.7 8.4,-10.6 15.7,-10.6 6.5,0 9.6,1.4 13.5,3.3 -1.1,9.2 -9,15.7 -17.6,15.7 z m 84.1,-52.3 -17,43.1 h -0.5 l -17.6,-43.1 h -16 l 26.4,60.2 -15.1,33.6 h 15.5 l 40.8,-93.7 h -16.5 z"
     opacity="0.54"
     id="path42"
     style="fill:#85ffb6;fill-opacity:0.991968" />
  <path
     d="m -155.74996,175.58578 c -2,2.1 -3.2,5.4 -3.2,9.6 v 151.3 c 0,4.2 1.2,7.5 3.2,9.6 l 0.5,0.5 84.800001,-84.8 v -2 l -84.800001,-84.8 z"
     fill="url(#a)"
     id="path44"
     style="fill:url(#a)" />
  <path
     d="m -42.249962,290.08578 -28.199997,-28.3 v -2 l 28.299997,-28.3 0.6,0.4 33.5000041,19 c 9.6,5.4 9.6,14.3 0,19.8 l -33.5000041,19 z"
     fill="url(#b)"
     id="path46"
     style="fill:url(#b)" />
  <path
     d="m -41.549962,289.68578 -28.899997,-28.9 -85.300001,85.3 c 3.1,3.3 8.4,3.8 14.2,0.4 z"
     fill="url(#c)"
     id="path48"
     style="fill:url(#c)" />
  <path
     d="m -41.549962,231.98578 -99.999998,-56.8 c -5.9,-3.3 -11.1,-2.9 -14.2,0.4 l 85.300001,85.3 z"
     fill="url(#d)"
     id="path50"
     style="fill:url(#d)" />
  <path
     d="m -42.249962,289.08578 -99.299998,56.4 c -5.6,3.2 -10.5,3 -13.7,0.1 l -0.5,0.5 0.5,0.5 c 3.2,2.9 8.2,3.1 13.7,-0.1 l 99.999998,-56.8 z"
     opacity="0.2"
     id="path52" />
  <path
     d="m -155.74996,345.08578 c -2,-2.1 -3.2,-5.4 -3.2,-9.6 v 1 c 0,4.2 1.2,7.5 3.2,9.6 l 0.5,-0.5 z m 147.6000021,-75.4 -34.1000041,19.4 0.6,0.6 33.5000041,-19 c 4.8,-2.7 7.2,-6.3 7.2,-9.9 -0.4,3.3 -2.8,6.4 -7.2,8.9 z"
     opacity="0.12"
     id="path54" />
  <path
     d="m -141.54996,176.08578 133.4000021,75.8 c 4.3,2.5 6.8,5.6 7.2,8.9 0,-3.6 -2.4,-7.2 -7.2,-9.9 l -133.4000021,-75.8 c -9.6,-5.4 -17.4,-0.9 -17.4,10 v 1 c 0,-10.9 7.8,-15.4 17.4,-10 z"
     fill="#ffffff"
     opacity="0.25"
     id="path56" />
</svg>
