<?xml version="1.0" standalone="no"?>
<!DOCTYPE svg PUBLIC "-//W3C//DTD SVG 1.1//EN" "http://www.w3.org/Graphics/SVG/1.1/DTD/svg11.dtd">
<svg xmlns="http://www.w3.org/2000/svg" xmlns:svg="http://www.w3.org/2000/svg" width="39.6875" height="39.6875" viewBox="0 0 39.687499 39.6875" version="1.1" id="svg5">
  <defs id="defs2"/>
  <g id="layer1" transform="translate(17.281665,388.65988)">
    <path d="m 78.21584,72.218747 h 53.14814 V 124.79573 H 78.21584 Z" fill="none" id="path1049" style="stroke-width:2.20257"/>
    <path style="opacity:1;fill:none;fill-opacity:1;stroke:none;stroke-opacity:1" id="path18473" d="M 37.788613,95.198578 A 11.813102,15.145003 0 0 1 25.988655,110.34357 11.813102,15.145003 0 0 1 14.162439,95.23228 11.813102,15.145003 0 0 1 25.93608,80.053659 11.813102,15.145003 0 0 1 37.788496,95.131174 l -11.812984,0.0674 z"/>
    <g id="group" transform="matrix(0.12599206,0,0,0.12599206,-17.281665,-388.65988)">
      <path id="path" d="M 157.5,157.5 M 0,157.5 C 0,115.743 16.605,75.657 46.131001,46.131001 75.657,16.605 115.743,0 157.5,0 199.257,0 239.343,16.605 268.86899,46.131001 298.39501,75.657 315.00001,115.743 315.00001,157.5 c 0,41.757 -16.605,81.843 -46.13102,111.36899 C 239.343,298.39501 199.257,315.00001 157.5,315.00001 c -41.757,0 -81.843,-16.605 -111.368999,-46.13102 C 16.605,239.343 0,199.257 0,157.5" fill="#23392b" stroke-width="1.04046"/>
      <path id="path_1" d="m 157.458,68.538 c -18.657,0 -37.302,9.159 -48.9,27.480001 C 92.559001,121.239 92.304001,154.071 107.967,179.469 l 47.916,66.195 c 0.762,1.062 2.37,1.062 3.132,0 l 47.916,-66.195 c 15.747,-25.488 15.576,-58.23 -0.51,-83.450999 C 194.781,77.7 176.112,68.538 157.458,68.538 Z m 0.201,38.1 c 15.408,0 27.939,13.098 27.939,29.205 0,16.107 -12.531,29.202 -27.939,29.202 -15.408,0 -27.939,-13.095 -27.939,-29.202 0,-16.107 12.531,-29.205 27.939,-29.205 z" fill="#85ffb6" stroke-width="0.755394"/>
      <path id="path_2" d="m 197.952,111.162 c -0.795,-9.093 -2.058,-16.169999 -4.059,-18.953999 -8.247,-11.439001 -66.015,-12.276001 -72.576,0 -1.602,3.009 -2.727,10.061999 -3.483,18.968999 -2.436,0.336 -4.335,2.739 -4.335,5.682 v 11.136 c 0,2.478 1.338,4.563 3.21,5.379 -0.444,17.541 -0.084,35.841 0.579,44.943 0,7.026 4.029,5.859 4.029,5.859 h 3.777 v 7.584 c 0,3.009 2.646,5.442 5.907,5.442 3.264,0 5.91,-2.433 5.91,-5.442 l -0.003,-7.581 h 43.929 v 7.584 c 0,3.009 2.643,5.442 5.91,5.442 3.261,0 5.907,-2.433 5.907,-5.442 l -0.003,-7.584 h 1.242 c 0,0 4.74,0.762 5.043,-2.547 0,-9.075 0.489,-29.193 0.087,-48.18 1.986,-0.729 3.438,-2.874 3.438,-5.457 v -11.136 c 0.003,-3.012 -1.989,-5.457 -4.509,-5.697 z M 135.426,93.840001 h 44.358 V 101.703 h -44.358 z m 0.633,81.380999 c -3.483,0 -6.303,-3.309 -6.303,-7.389 0,-4.077 2.823,-7.383 6.303,-7.383 3.483,0 6.306,3.306 6.306,7.383 0,4.08 -2.823,7.389 -6.306,7.389 z m 43.488,0 c -3.48,0 -6.309,-3.309 -6.309,-7.389 0,-4.077 2.826,-7.383 6.309,-7.383 3.483,0 6.303,3.306 6.303,7.383 0.003,4.08 -2.823,7.389 -6.303,7.389 z m 8.016,-32.334 H 127.65 v -36.822 h 59.913 z" fill="#000000" style="stroke-width:2.99999"/>
      <path id="path_3" d="m 127.65,106.065 h 59.913 v 36.822 H 127.65 Z" fill="#ffffff" stroke-width="0.793749" fill-rule="evenodd"/>
      <path id="path_4" d="m 135.426,93.840001 h 44.358 V 101.703 h -44.358 z" fill="#ffffff" stroke-width="0.793749"/>
      <path id="path_5" d="m 129.522,167.901 c -0.003,1.599 0.429,3.159 1.236,4.452 0.807,1.296 1.947,2.262 3.255,2.757 1.308,0.495 2.721,0.495 4.029,0 1.308,-0.495 2.448,-1.461 3.255,-2.757 0.807,-1.293 1.239,-2.853 1.236,-4.452 0.003,-1.599 -0.429,-3.159 -1.236,-4.452 -0.807,-1.296 -1.947,-2.262 -3.255,-2.757 -1.308,-0.495 -2.721,-0.495 -4.029,0 -1.308,0.495 -2.448,1.461 -3.255,2.757 -0.807,1.293 -1.239,2.853 -1.236,4.452 z" fill="#ffffff" stroke-width="0.571537"/>
      <path id="path_6" d="m 173.037,167.901 c -0.003,1.599 0.429,3.159 1.236,4.452 0.807,1.296 1.947,2.262 3.255,2.757 1.308,0.495 2.721,0.495 4.029,0 1.308,-0.495 2.448,-1.461 3.255,-2.757 0.807,-1.293 1.239,-2.853 1.236,-4.452 0.003,-1.599 -0.429,-3.159 -1.236,-4.452 -0.807,-1.296 -1.947,-2.262 -3.255,-2.757 -1.308,-0.495 -2.721,-0.495 -4.029,0 -1.308,0.495 -2.448,1.461 -3.255,2.757 -0.807,1.293 -1.239,2.853 -1.236,4.452 z" fill="#ffffff" stroke-width="0.571537"/>
      <text xml:space="preserve" style="font-style:normal;font-weight:normal;font-size:84px;line-height:1.25;font-family:sans-serif;fill:#000000;fill-opacity:1;stroke:none;stroke-width:2.1" x="32.856312" y="297.30957" id="text21814"><tspan id="tspan21812" style="stroke-width:2.1"/></text>
    </g>
  </g>
</svg>